<?xml version="1.0"?>
<svg xmlns="http://www.w3.org/2000/svg" height="512px" viewBox="-31 0 463 463.984" width="512px"><path d="m103.363281 225.535156.648438-1.726562c-4.832031-8.5625-7.519531-18.304688-7.519531-28.207032 0-8.832031 2.085937-17.671874 6.039062-25.585937l8.730469-17.457031-1.839844-2.75c-8.457031-12.695313-12.929687-27.464844-12.929687-42.710938 0-11.730468 2.832031-23.210937 7.953124-33.699218l-9.847656-24.613282c-2.144531-5.34375-7.242187-8.800781-12.992187-8.800781-3.738281 0-7.25 1.457031-9.898438 4.105469-12.253906 12.253906-26.335937 22.40625-41.839843 30.15625l-7.792969 3.898437c-5.160157 9.078125-14.636719 17.734375-21.582031 25.519531l.359374.320313c42.65625 38.382813 77.648438 86.457031 95.816407 140.40625 2.207031-6.292969 4.359375-12.621094 6.695312-18.855469zm0 0" fill="#D80027"/><path d="m104.925781 321.175781c5.132813-23.136719 13.09375-45.625 23.566407-66.929687-3.847657-5.460938-8.136719-10.644532-12.808594-15.558594-13.464844 36.914062-24.6875 74.9375-33.191406 113.222656-1.328126 5.953125-2 12.058594-2 18.128906 0 22.335938 8.695312 43.328126 24.488281 59.121094l2.945312 2.832032c-7.503906-17.914063-11.433593-37.359376-11.433593-56.769532 0-10.679687 1.175781-21.398437 3.496093-31.839844zm0 0" fill="#D80027"/><path d="m378.914062 78.144531-7.789062-3.898437c-15.503906-7.75-29.585938-17.894532-41.839844-30.15625-2.648437-2.648438-6.167968-4.105469-9.898437-4.105469-5.75 0-10.847657 3.457031-12.992188 8.808594l-9.847656 24.605469c5.113281 10.488281 7.945313 21.96875 7.945313 33.699218 0 15.246094-4.472657 30.015625-12.929688 42.710938l-1.839844 2.75 8.730469 17.457031c3.949219 7.914063 6.039063 16.761719 6.039063 25.585937 0 9.902344-2.6875 19.636719-7.519532 28.199219l.648438 1.726563c2.335937 6.242187 4.496094 12.570312 6.695312 18.871094 18.167969-53.957032 53.519532-102.023438 96.175782-140.40625-6.945313-7.792969-16.425782-16.769532-21.578126-25.847657zm0 0" fill="#D80027"/><path d="m288.492188 195.601562c0-6.363281-1.503907-12.738281-4.351563-18.433593l-18.808594-37.609375 14.3125-7.160156 1.609375 3.210937c4.671875-8.769531 7.238282-18.480469 7.238282-28.511719 0-11.058594-3.007813-21.90625-8.695313-31.386718l-14.167969-23.605469 13.71875-8.234375 7.0625 11.769531 5.121094-12.792969c4.585938-11.464844 15.519531-18.855468 27.847656-18.855468 8.007813 0 15.546875 3.128906 21.210938 8.792968 7.703125 7.703125 16.253906 14.421875 25.445312 20.191406l-15.855468-31.695312c-6.558594-13.128906-19.757813-21.28125-34.441407-21.28125-10.277343 0-19.941406 4-27.214843 11.273438l-13.582032 13.582031-4.394531-1.101563c-20.597656-5.152344-41.816406-7.761718-63.046875-7.761718h-14.03125c-21.234375 0-42.449219 2.609374-63.046875 7.761718l-4.394531 1.101563-13.582032-13.582031c-7.273437-7.273438-16.9375-11.273438-27.21875-11.273438-14.679687 0-27.871093 8.160156-34.4375 21.28125l-15.839843 31.6875c9.183593-5.769531 17.734375-12.488281 25.445312-20.191406 5.664063-5.664063 13.203125-8.792969 21.210938-8.792969 12.328125 0 23.261719 7.398437 27.847656 18.847656l5.117187 12.800781 7.066407-11.769531 13.71875 8.234375-14.167969 23.605469c-5.6875 9.488281-8.695312 20.335937-8.695312 31.394531 0 10.03125 2.566406 19.742188 7.238281 28.519532l1.609375-3.210938 14.3125 7.160156-18.808594 37.609375c-2.847656 5.695313-4.351562 12.070313-4.351562 18.425781 0 10.847657 4.398437 21.46875 12.070312 29.140626 23.183594 23.1875 38.082031 52.570312 43.058594 84.96875l23.734375 154.273437h18.273437l23.742188-154.273437c4.976562-32.398438 19.863281-61.78125 43.058594-84.96875 7.664062-7.671876 12.0625-18.285157 12.0625-29.140626zm-144-75.617187h-16v-16h16zm84.433593 119.167969c-.144531-.082032-14.585937-7.167969-28.433593-7.167969-13.847657 0-28.289063 7.085937-28.433594 7.167969l-7.152344-14.320313c.730469-.359375 17.890625-8.839843 35.578125-8.839843s34.847656 8.488281 35.574219 8.839843zm0-32c-.144531-.082032-14.585937-7.167969-28.433593-7.167969-13.847657 0-28.289063 7.085937-28.433594 7.167969l-7.152344-14.320313c.730469-.359375 17.890625-8.839843 35.578125-8.839843s34.847656 8.488281 35.574219 8.839843zm0-32c-.144531-.082032-14.585937-7.167969-28.433593-7.167969-13.847657 0-28.289063 7.085937-28.433594 7.167969l-7.152344-14.320313c.730469-.359375 17.890625-8.839843 35.578125-8.839843s34.847656 8.488281 35.574219 8.839843zm27.566407-71.167969h16v16h-16zm0 0" fill="#D80027"/><path d="m285.308594 238.679688c-4.671875 4.921874-8.960938 10.105468-12.808594 15.566406 10.464844 21.304687 18.433594 43.792968 23.566406 66.929687l4.9375 22.199219c2.3125 10.449219 3.488282 21.167969 3.488282 31.847656 0 19.417969-3.929688 38.847656-11.433594 56.769532h.121094l2.832031-2.832032c15.785156-15.792968 24.480469-36.785156 24.480469-59.121094 0-6.070312-.671876-12.175781-1.992188-18.136718-8.511719-38.277344-19.726562-76.300782-33.191406-113.222656zm0 0" fill="#D80027"/></svg>
